Coordinates
version=1
nRows=21
nColumns=19
inDegrees=yes

Units are S.I. units (second, meters, Newtons, ...)
If the header above contains a line with 'inDegrees', this indicates whether rotational values are in degrees (yes) or radians (no).

endheader
time	pelvis_tilt	pelvis_list	pelvis_rotation	pelvis_tx	pelvis_ty	pelvis_tz	hip_flexion_r	hip_adduction_r	hip_rotation_r	knee_angle_r	knee_angle_r_beta	ankle_angle_r	hip_flexion_l	hip_adduction_l	hip_rotation_l	knee_angle_l	knee_angle_l_beta	ankle_angle_l
     11.70000000	     -5.56927967	     -5.97178888	      1.10194105	      2.39029254	      1.02719335	      1.03651348	     33.85830860	      7.67140864	     -5.70236028	     20.35870561	      0.35532644	     -4.81579465	    -14.08381167	     -8.54230816	     -2.31320412	     68.27898822	      1.19169315	    -24.44189322
     11.70666667	     -4.91546426	     -6.64423040	      0.38949887	      2.38843561	      1.02408385	      1.03713667	     33.21674911	      8.78286770	     -5.99881248	     21.96617159	      0.38338202	     -4.09436646	    -13.11058907	     -9.20289509	     -2.37303040	     73.08338707	      1.27554573	    -25.98423682
     11.71333333	     -5.29477770	     -7.50135422	      0.11572769	      2.38668945	      1.01953095	      1.03707916	     33.75386933	      9.67977966	     -7.01132367	     24.08692634	      0.42039617	     -3.10852284	    -10.71733155	    -10.15282611	     -1.76380610	     78.05146476	      1.36225505	    -27.50037569
     11.72000000	     -5.47584152	     -8.02392278	     -0.38508825	      2.38449251	      1.01495149	      1.03704734	     34.15455248	     10.36201382	     -7.61346924	     26.79550041	      0.46766971	     -1.61734806	     -8.50251328	    -10.59278874	     -1.18448852	     82.76896591	      1.44459097	    -28.92767605
     11.72666667	     -4.83983773	     -8.68055107	     -1.08257683	      2.38207451	      1.01106699	      1.03689314	     33.57828331	     11.32061545	     -7.90915412	     29.66616242	      0.51777221	      0.24197483	     -7.26405592	    -11.14374544	     -0.97573604	     87.10832959	      1.52032716	    -30.10986088
     11.73333333	     -6.00032732	     -8.73469069	     -1.37797500	      2.37960453	      1.00522777	      1.03627715	     34.92095589	     11.39156528	     -8.24914230	     32.79841804	      0.57244038	      2.32778254	     -3.60869064	    -11.05278003	      0.18517291	     91.61323189	      1.59895253	    -30.91626596
     11.74000000	     -6.28570606	     -9.03141450	     -1.87746255	      2.37707895	      1.00037656	      1.03568986	     35.08501720	     11.91640754	     -8.18710127	     35.70319385	      0.62313829	      4.66399618	     -1.01633091	    -11.29607428	      0.84087041	     95.68350142	      1.66999214	    -31.29404359
     11.74666667	     -6.51624942	     -9.16956791	     -2.28983934	      2.37439130	      0.99586753	      1.03497528	     35.00264799	     12.30772193	     -7.87760296	     38.41368583	      0.67044530	      7.16932692	      1.65432234	    -11.41804648	      1.56244012	     99.48415374	      1.73632604	    -31.25462842
     11.75333333	     -5.90812258	     -9.52018930	     -2.75468544	      2.37177367	      0.99269737	      1.03423238	     33.71569278	     13.02198441	     -7.30936345	     40.69541739	      0.71026902	      9.79926032	      3.36883283	    -11.89089426	      1.97564498	    102.84333611	      1.79495483	    -30.78541848
     11.76000000	     -6.82481945	     -9.36875015	     -3.08281841	      2.36902141	      0.98829064	      1.03363630	     33.94764918	     13.16582156	     -6.67835918	     42.80484834	      0.74708554	     12.28053366	      7.11883213	    -11.87317424	      2.85928013	    106.16302990	      1.85289442	    -30.03077323
     11.76666667	     -6.87370230	     -9.40238037	     -3.32816241	      2.36638533	      0.98551125	      1.03290227	     32.93571385	     13.49054015	     -5.97994637	     44.38537146	      0.77467087	     14.74759637	      9.93268906	    -12.12303966	      3.58370052	    108.99912032	      1.90239353	    -28.96797361
     11.77333333	     -6.85246332	     -9.41483081	     -3.57216734	      2.36391212	      0.98347293	      1.03228288	     31.58460069	     13.79891707	     -5.18782273	     45.52298120	      0.79452591	     17.05643890	     12.74362811	    -12.40484231	      4.25214920	    111.45190232	      1.94520265	    -27.68736140
     11.78000000	     -6.38371658	     -9.32493248	     -3.82396862	      2.36168752	      0.98271587	      1.03184813	     29.46975547	     14.01847434	     -4.19419985	     46.20985971	      0.80651420	     19.24111512	     15.06295091	    -12.62680005	      4.71536475	    113.41708589	      1.97950158	    -26.30629937
     11.78666667	     -6.59888633	     -9.16439925	     -3.85939160	      2.35967384	      0.98170263	      1.03130844	     27.93437685	     14.00293479	     -3.51438208	     46.54230965	      0.81231654	     21.07353460	     18.33325619	    -12.69615861	      5.50879731	    115.13621936	      2.00950612	    -24.82428156
     11.79333333	     -6.31882340	     -8.83813264	     -4.05317224	      2.35806113	      0.98197681	      1.03121128	     25.59712783	     13.87967754	     -2.53434334	     46.47516563	      0.81114466	     22.69000966	     20.91970427	    -12.66554039	      5.84823571	    116.31701942	      2.03011496	    -23.28211816
     11.80000000	     -6.15932073	     -8.42223427	     -4.21336836	      2.35688228	      0.98272663	      1.03134048	     23.18562186	     13.61441768	     -1.58592258	     46.02437709	      0.80327692	     23.99345705	     23.60777960	    -12.53537609	      6.10814602	    117.09335897	      2.04366465	    -21.79171191
     11.80666667	     -6.10375101	     -7.91322495	     -4.34538498	      2.35595032	      0.98384460	      1.03177213	     20.74218580	     13.22703996	     -0.64505288	     45.27057869	      0.79012065	     24.87959623	     26.37388311	    -12.30741070	      6.26625934	    117.50100702	      2.05077945	    -20.31517575
     11.81333333	     -6.18955214	     -7.31157311	     -4.44481911	      2.35558806	      0.98517020	      1.03242435	     18.30312881	     12.67376426	      0.16611185	     44.22948114	      0.77195007	     25.46511625	     29.16830583	    -11.99248718	      6.27306826	    117.53436580	      2.05136167	    -18.67688001
     11.82000000	     -6.39267574	     -6.62627158	     -4.50455282	      2.35554955	      0.98674318	      1.03338912	     15.89310098	     12.02040409	      0.94126866	     42.94760239	      0.74957707	     25.59743916	     31.98437906	    -11.60823161	      6.14433817	    117.21878396	      2.04585373	    -17.04162534
     11.82666667	     -6.73063486	     -5.86412730	     -4.54298622	      2.35601037	      0.98850340	      1.03460661	     13.53237479	     11.25584168	      1.63098152	     41.43766670	      0.72322372	     25.27665734	     34.78034057	    -11.17156349	      5.83767400	    116.54922550	      2.03416773	    -15.33611291
     11.83333333	     -6.16361385	     -4.51047764	     -4.56944308	      2.35696594	      0.99199117	      1.03604593	     10.13108161	      9.74202415	      2.36661444	     39.70324312	      0.69295232	     24.56550279	     36.22468130	    -10.11408301	      4.83931160	    115.31047872	      2.01254752	    -13.46759862
